<?xml version="1.0" encoding="utf-8"?>
<!-- Generator: Adobe Illustrator 24.3.0, SVG Export Plug-In . SVG Version: 6.00 Build 0)  -->
<svg version="1.1" id="Layer_1" xmlns="http://www.w3.org/2000/svg" xmlns:xlink="http://www.w3.org/1999/xlink" x="0px" y="0px"
	 viewBox="0 0 100 78.3" style="enable-background:new 0 0 100 78.3;" xml:space="preserve">
<style type="text/css">
	.st0{stroke:#000000;}
</style>
<g>
	<path class="st0" d="M23.7,20.2c0.2,6.3,4.3,12.6,10.8,13.8c2.8,0.4,5.7,0,8.3-0.8c0.8-0.4,1.8-0.6,2.4-1c0.6-0.2,1-0.4,1.4-0.6
		c0.2-0.2,0.6-0.4,0.6-0.4c1.8-1,3.1-2.2,3.7-4.3c0.2-0.6,0.4-2.2,0.4-2.4c0-0.2,0.2-0.8,0.2-0.8c0.6-2.6,0.4-5.9-0.4-8.5
		c-0.4-1-0.6-2-1-3.1c0-0.2-0.4-1-0.4-1c-0.6-1.4-1.2-2.6-2.2-3.7c-0.4-0.4-1.4-1-1.4-1c-0.6-0.4-1.2-0.8-1.8-0.8
		c-0.4,0-1-0.2-1-0.2c-0.1,0-0.3-0.1-0.5-0.1C39.2,4.6,35,5,31.9,6.6c-1.4,0.6-2.4,1.2-3.7,2.2c-0.4,0.4-1.2,1.4-1.2,1.4
		c-1.4,1.6-3.5,3.5-3.9,5.7c-0.2,0.8,0,2,0.2,2.8C23.5,19.2,23.7,20.2,23.7,20.2z M33.5,23.5c0.2,0,0.4,0,0.4,0c0,0,0.1,0.1,0.1,0.1
		c-0.1,0-0.3,0.1-0.4,0.1C33.5,23.6,33.5,23.5,33.5,23.5z M35.6,25.8c0.1,0.1,0.2,0.2,0.2,0.2c0,0.2,0,0.6,0,0.6
		c-0.2-0.2-0.4-0.3-0.5-0.5C35.3,26,35.5,25.9,35.6,25.8z M45,10.8c-0.4-0.2-0.8-0.3-0.8-0.3c-0.1-0.2-0.1-0.3-0.2-0.5
		c0.1,0,0.1,0,0.2,0C44.6,10.3,44.8,10.5,45,10.8z M28.6,18c0.2-0.4,0.6-1.4,0.6-2c-0.2-0.2-0.6-0.6-0.6-0.6
		c0.2-0.6,0.6-1.2,0.8-1.6c0.4-0.4,0.8-1,0.8-1.2c0.9-0.8,2.3-1.4,3.6-1.8c0,0.1-0.1,0.1-0.1,0.2c-0.2,0-0.3,0.1-0.5,0.1l0.5-0.1
		c-0.2,0.5-0.5,1.1-0.5,1.1c-0.6-0.4-1.6,0-2,0.6c-0.2,0.6-0.6,1.8-0.6,1.8c0,0.2-0.2,0.8-0.2,0.8c-1.1,1.2-1.6,2.6-1.8,4.1
		C28.5,18.9,28.5,18.5,28.6,18z"/>
	<path class="st0" d="M65,57.9c-0.8-2.8-0.6-6.1-2.8-8.3c-1.4-1-2.8-1.4-4.5-2c-0.5-0.2-0.9-0.5-1.4-0.7c-1.1-1.1-2.5-2-4.3-2.7
		c-0.8-0.2-1.5-0.3-2.2-0.4c0,0,0,0,0,0c-0.2,0-0.4-0.1-0.6-0.1l0.8,0.1c-1.9-0.3-4.2-0.8-6.4-1c-1.1-0.2-2.2-0.4-3.2-0.4
		c0,0-0.1,0-0.1,0l0.3,0c-0.1,0-0.3,0-0.4,0c-1-0.2-2.1-0.4-3.3-0.4c-1,0-2.6,0-2.6,0l3.1,0.2c-2.2-0.1-4.4,0.1-6.7,0.2
		c-1.8,0.2-3.3,0-4.9,0.4c-1.4,0.4-2.8,1-4.3,1.4c-4.1,1.4-7.5,3.1-10.2,6.3C8.1,54.4,6.7,59.9,6,64.8c-0.2,1-0.4,2,0,3.1
		c0.2,0.6,0.7,1,1.2,1.2c0.3,0.7,0.8,1.4,1.6,1.6c1.2,0.2,2.8-0.4,4.1-0.6c1.6-0.2,3.5-0.2,5.1,0c6.9,0.6,13.8,1,20.6,1.6
		c2.8,0.2,5.5,1,8.1,1.4c2.8,0.4,5.9,0.2,8.5-0.6c1.1-0.3,3-0.7,3.9-1.8c0.6,0,1.4-0.2,1.4-0.2c0.8-0.2,1.4-0.2,2.2-0.4
		c0.4-0.2,1-0.6,1-0.6c1.2-0.4,2.2,0.6,3.3-0.4c1-1,0.4-2.6,0.2-3.7C65.9,61.7,65.9,61.5,65,57.9z M20.3,65.4
		c-1.3,0.1-1.9,0.1-2.8,0c0.3-0.8,0.7-1.9,1-2.7c0.4,0.3,0.8,0.4,1.4,0.4c0.4,0,0.7,0,1,0c-0.2,0.7-0.3,1.4-0.4,2.2
		C20.4,65.4,20.3,65.4,20.3,65.4z M33.1,63.4c0.1-0.2,0.2-0.5,0.3-0.8c0.1,0.1,0.2,0.2,0.4,0.2c-0.2,0.9-0.4,1.7-0.4,2.6
		c-0.3,0-0.7-0.1-1-0.1C32.6,64.6,32.9,64,33.1,63.4z M46.9,65.4c0.4,0.2,1,0,1.6-0.2c0.2,0,0.4-0.2,0.4-0.2
		c-0.1,0.5-0.2,1.3-0.3,2.1c-0.8-0.1-1.5-0.3-2.3-0.4C46.7,66.2,46.9,65.4,46.9,65.4z M54.5,50.8c0,0.1-0.1,0.1-0.1,0.1
		c-0.4-0.6-0.4-0.8-1-1c-0.2-0.2-0.8-0.2-0.8-0.4c0-0.1,0-0.3,0-0.4c0.2,0.1,0.4,0.2,0.6,0.4C53.8,49.9,54.2,50.4,54.5,50.8z
		 M47.3,47.5c0.4,0.1,0.9,0.1,1.3,0.1c0,0.1-0.1,0.2-0.1,0.3c-0.2,0.4-0.6,1.4-0.6,1.4c0-1.2-2-1.4-2.6-1.2c-0.4,0.2-1,0.8-1,0.6
		c-0.4-0.4-1-0.8-1.6-0.6c-0.4,0-1.2,0.2-1.2,0.2c0.1-0.5,0.2-1,0.3-1.5l0.4-0.1c-0.1,0-0.3,0-0.4,0c0,0,0,0,0,0c0.3,0,0.5,0,0.5,0
		l-0.1,0c0.4,0,0.7,0,1.1,0C44.6,47,45.9,47.3,47.3,47.5z"/>
	<path class="st0" d="M87.9,67.3c0,0,0,0.1,0,0.1l0.2-0.2C88,67.2,87.9,67.3,87.9,67.3z"/>
	<path class="st0" d="M93.9,61.7c-0.2-2.6-1.4-5.3-2.2-7.7c-1.6-4.7-4.3-8.5-7.5-12.2c-1.6-2-4.3-3.3-6.7-3.9
		c-0.6-0.2-1.2-0.2-2-0.2c-0.2-0.2-1-0.2-1-0.2c-0.4-0.2-1-0.4-1.4-0.2c-0.2,0-0.6,0.2-0.6,0.2c-1.8-0.2-4.9-0.6-5.9,1.2
		c-0.2,0.6-0.2,1.4,0,2c0.4,0.4,1.2,1,1.2,1c-1.4,0.4-1.6,1.2-1.4,2.6c0,0.6,1.2,1.4,1.2,1.4c0,0.2,0.2,0.4,0.2,0.4
		c1,1.2,2.6,2.8,3.5,4.1c2,2.8,2.8,6.3,3.5,9.6c0.4,2.6-0.2,7.9,2.2,9.8c0.6,0.4,1.6,0.6,2.4,0.6c3.3,0.4,4.3,0.4,7.7,0.6
		c1.4,0.2,4.7,0.2,5.9-1.2C95,67.8,93.9,63.6,93.9,61.7z M69.9,42.6c0.6,0,1.8-0.4,1.8-0.4c-0.2,0.8-0.4,1.6,0,2.4c0,0,0,0,0,0.1
		C70.9,43.7,69.9,42.6,69.9,42.6z M73,46.1c-0.3-0.3-0.6-0.7-0.9-1.1c0.4,0.3,0.9,0.7,0.9,0.7C73,45.9,73,46.1,73,46.1z M77.9,54.2
		c0,0.4-0.2,1-0.4,1c-0.4-1.2-1.2-3.7-1.2-3.7c0.4-0.2,0.8-0.6,0.8-0.6c0,0.6-0.4,1.6-0.2,2.2C77.1,53.6,78.1,54.2,77.9,54.2z
		 M79.5,66.2c-0.2-1.8-0.8-5.7-0.6-5.7c0.6-0.2,0.8-0.2,1.2-0.6c0.2-0.2,0.4-0.6,0.4-0.6c0.2,0.4,1,1,1,1c-0.4,1.2-0.8,2.4-0.4,3.7
		c0.2,0.4,1.2,1.2,1.2,1.2c0,0.4,0.4,1.4,0.4,1.4C81.7,66.4,79.5,66.2,79.5,66.2z M88.9,58.3c0.2,0.4,0.4,0.8,0.6,1.2
		c0,0.1,0,0.5,0,0.6c-0.2-0.2-0.8-0.6-0.8-0.6C88.9,59.1,88.9,58.3,88.9,58.3z M87.8,55.4c0.2,0.4,0.4,1,0.4,1
		C88,56.2,87.6,56,87.6,56C87.8,55.8,87.8,55.4,87.8,55.4z M87.8,67.4c-0.1,0,0-0.1,0-0.1c0.1-0.2,0.4-0.5,0.4-0.3
		C88.4,67,88,67.6,87.8,67.4z M90.1,66.6c-0.6,0.2-1.8,0.2-1.8,0.2l1.8-2.2C90.1,65.4,90.1,66.6,90.1,66.6z"/>
	<path class="st0" d="M72.2,5.8c0,0,0.3,0.1,0.6,0.1c0,0,0,0,0.1,0L72.2,5.8z"/>
	<path class="st0" d="M64.8,30.4c0.4,0.2,1,0.4,1.4,0.2c0.4,0,1-0.6,1-0.6c1.2,0.2,1.8,0.4,3.1,0.4c0.2,0,0.8,0,0.8,0
		c1,0.4,3.3-0.2,3.9-0.8c0.6-0.4,1.4-1.2,1.4-1.2c0.4-0.4,0.6-0.8,1-1.2c0.2-0.2,0.4-0.6,0.4-0.6c2.6-2.4,3.5-6.9,3.5-10.4
		c0-1.2-0.2-2-0.4-3.3c-0.2-0.4-0.8-1.4-0.8-1.4c-0.8-2.2-2.6-4.1-4.7-5.1C74.8,6.2,74,6,73.4,6c-0.1,0-0.2,0-0.2,0
		c-0.1,0-0.2,0-0.3,0L73,6c-0.1,0-0.1,0-0.2,0c-0.7-0.1-1.3-0.1-2.1-0.1c-0.8,0.2-2,0.6-2,0.6c-1,0.2-2,0.6-3.1,1
		c-0.4,0.4-1.4,1-1.6,1c-5.5,3.3-6.9,12.6-4.3,18.1C60.8,28.6,62.6,29.8,64.8,30.4z M72.8,19.6c0-0.2,0.2-0.6,0.2-0.6l0.4-0.2
		c0.4,0,1,0.4,1,0.4c-0.2,0.6-0.4,1.2-0.6,1.8c-0.2,0.4-0.4,0.8-0.6,0.8C73,21.7,72.8,21,72.8,21C72.6,20.4,72.8,20,72.8,19.6z
		 M67.1,19.8c0-0.6,0.6-1.8,0.6-1.8c0.2-0.4,0.8-1,0.8-1c0,0.2,0,0.4-0.2,0.4c-0.4,1-0.8,1.6-0.8,2.6c-0.2,0.6-0.2,1.6-0.2,1.6
		C67.1,21,66.9,19.8,67.1,19.8z"/>
</g>
</svg>
