<?xml version="1.0" encoding="utf-8"?>
<!-- Generator: Adobe Illustrator 24.3.0, SVG Export Plug-In . SVG Version: 6.00 Build 0)  -->
<svg version="1.1" id="Layer_1" xmlns="http://www.w3.org/2000/svg" xmlns:xlink="http://www.w3.org/1999/xlink" x="0px" y="0px"
	 viewBox="0 0 100 94.3" style="enable-background:new 0 0 100 94.3;" xml:space="preserve">
<style type="text/css">
	.st0{stroke:#000000;}
</style>
<g>
	<path class="st0" d="M74.4,40.9c0.2-0.4,0.3-0.9,0.3-1.3c0-3.4-4-6.1-6.1-8.2c-0.6-0.6-1.4-1.4-2.2-1.8c-0.8-0.5-1.6-1-2.5-1.4l0,0
		c0,0,0,0-0.1,0c-0.3-0.2-0.7-0.3-1-0.5l1.1,0.3c-0.4-0.2-0.8-0.3-1.1-0.4c0,0-0.1,0-0.1,0c-0.4-0.2-1.4-0.4-1.4-0.4l1.4,0.4
		c-0.9-0.2-1.7-0.2-2.6,0c-0.2,0-0.4,0-0.6-0.1c-0.4-0.2-1.2,0-1.2,0c-0.2,0-0.4,0-0.4,0c-0.4,0-1,0-1.4,0c-0.2,0-0.8,0-0.8,0
		c-0.4-0.2-1.4,0.2-1.4,0.2c-3.4,0.6-6.7,3.4-8.7,6.1c-0.8,1.4-2.8,4-2.8,4c-5.8,5-11.3,10.5-16.9,15.7c-1.4,1.4-2.4,2.8-4,4.2
		c-2.8,2.4-5.2,4.8-7.9,7.5c-1.2,1.2-2,2.2-3.2,3.6c0,0.2-0.4,0.6-0.6,0.6c-0.2,0.2-0.4,0.8-0.6,0.8c-1.6,1.8-3.8,3.8-4.2,6.5
		c-0.4,2.8,1,5,2.2,7.7c7.5,16.2,24.7-3.3,31.7-9.6c10.1-9.1,20.4-18.4,30-28.1C70.6,45.2,73.5,43.2,74.4,40.9z M14,82.3
		c0.1-0.1,0.2-0.2,0.3-0.2c0.4-0.2,0.8-0.8,0.8-0.8c-0.2,0.4-0.2,0.8-0.2,1.2c0,0.1,0,0.4,0,0.6C14.5,82.8,14.2,82.5,14,82.3z
		 M60.3,47.4c-1.5,1.8-2.9,2.7-5.7,0.9c-1.6-1-3-2.5-4.4-3.8c-1.8-1.7-1.8-1-1-3.2c1.2-3.3,6.2-9.4,10.1-9.3
		c4.1,0.1,7.8,5.5,6.1,9.2c-0.7,1.4-2,2.5-3,3.6C61.6,45.7,61,46.7,60.3,47.4z M49.5,38.5c-0.5,0.5-1.1,0.9-1.8,1.3c0,0,0,0-0.1,0
		c1-0.9,2-1.8,3-2.7C50.3,37.6,49.9,38.1,49.5,38.5z M24.7,82.2c0.1,0.1,0.1,0.1,0.2,0.1c-0.6,0.6-1.2,1.2-1.8,1.6L24.7,82.2z
		 M11.6,74.2c0.2-0.4,0.8-1.2,0.8-1.2c-0.6,1.1-1.6,2.6-2.1,4.1c-0.1-0.2-0.1-0.4-0.1-0.4C10.6,75.8,11,74.8,11.6,74.2z"/>
	<path class="st0" d="M89.8,68.7c-0.1-0.4-0.4-1-0.4-1c-0.4-3.2,0.6-5.2,2-8.1c0.2-0.6,0.6-1,0.6-1.6c0-0.4,0-1,0-1.2
		c0.2-0.6,0.2-1.2-0.2-1.8c-0.2-0.6-1.4-1-1.4-1l0.5,0.3c-0.9-0.4-1.9-0.2-2.7,0.9c-0.6,0.8-1.2,1.6-2,2.4l-0.1,0.2
		c-0.2,0.1-0.3,0.2-0.4,0.3c-0.4,0.2-0.6,0.3-1.1,0.5c-0.2,0-0.8,0-0.8,0c-0.6-0.4-1.4-0.6-2.2-1c-0.2-0.2-1-0.4-1-0.4
		c-0.6-0.4-1-0.8-1.8-1c-0.4,0-1.2,0.2-1.2,0.2c-0.2,0-0.8,0.2-0.8,0.2c-1,0-1.8,0.8-2,1.8c0,0.4,0.4,1.2,0.2,1.2
		c0,0.1,0.1,0.2,0.2,0.3c0,0.2,0.1,0.4,0.1,0.6c-0.1,0.5,0,0.8,0.4,1.3c0.1,0.3,0.3,0.5,0.3,0.5h0.2c0,0,0.1,0.1,0.1,0.1
		c0.2,0.2,0.4,0.4,0.6,0.6c0.1,0.3,0.1,0.6,0.1,1c0,0.4,0,0.8,0,1c-0.2,1-0.4,1.8-0.6,2.8c-0.2,0.4-0.4,1.4-0.4,1.4
		c-0.6,0.6-1.2,1.2-1.2,2c0,0.1,0,0.1,0.1,0.2c-0.4,1.2-0.2,2.3,1.8,2.4c0,0,0,0,0.1,0c0.7,0.7,1.8,0.9,2.8,0.4
		c0.6-0.6,1-1.2,1.6-1.8c0,0,0,0,0,0c0.7-0.1,1.3-0.3,1.4-0.4c0.6,0,1.8-0.2,1.8,0c1,0.3,2.5,1,3.7,1.3c0.1,0,0.1,0.1,0.2,0.1
		c0.8,0.6,2.2,1.4,3.4,0.8c0.8-0.6,1-1.8,0.8-2.8C91.9,70.5,90.8,69.5,89.8,68.7z"/>
	<path class="st0" d="M94.9,22.1c0-1.8-1.8-3.4-2.4-5.2c-0.4-0.6-0.4-1.4-0.4-2c0-0.4,0-1,0-1c0.2-1.8,1-5,1-5
		c0-0.2,0.2-0.6,0.2-0.6c0.6-0.7,1.3-1.7,0.9-2.4c0.1-0.6-0.1-1.2-0.5-1.6c-0.2-0.2-0.8-0.6-1.2-0.6c-0.2,0-0.6,0-0.6,0l0.3,0.1
		c-1.2-0.1-2.1,0.8-3.1,1.9c-0.2,0.2-0.6,0.6-0.9,1C85.9,6.2,84.3,6,82,5c-0.4-0.4-1.2-0.4-1.6-0.4c-0.3,0-0.6,0.1-0.8,0.1
		c-0.1-0.1-0.3-0.1-0.4-0.1c-0.1,0-0.1,0-0.2-0.1l0.4,0.1c-0.2-0.1-0.4-0.1-0.6-0.2c-0.3-0.1-0.5-0.2-0.8-0.2c-0.2,0-0.6,0-0.6,0
		l0,0c-0.5,0-1,0.1-1.5,0.5c-0.5,0.2-0.9,0.5-1.1,1.1c-0.3,0.6,0,1.5,0.4,2.1c-0.5,1.1,2.1,3.4,2.4,3.7c0.2,0.1,0.4,0.3,0.6,0.4
		c-0.2,1.9-0.6,3.8-1.3,5.6c-0.3,0.2-0.5,0.4-0.7,0.6c-0.4,0.6-0.8,1-0.8,1.6c0,0.1,0,0.2,0.1,0.4c-0.3,0.5-0.5,1-0.6,1.5
		c-0.3,0.3-0.5,0.7-0.6,1.2c0,0.6,0.2,1.6,0.2,1.6c0.2,1.4,1.4,2.6,2.8,2c0.7-0.2,1.3-1.2,1.8-2c0.9-0.6,1.9-1.5,2.4-1.8
		c0.8-0.4,2.4-1,2.4-1s0.2-0.2,0.4-0.2c1.6,0,5,1.2,5,1.2c0.4,0.3,0.9,0.4,1.3,0.5c0.5,0.4,0.8,0.7,0.9,0.7v0.2
		c0.6,0.6,1.4,0.4,2-0.2c0,0,0,0,0,0C94.3,23.9,94.9,23.4,94.9,22.1z"/>
	<path class="st0" d="M26.3,17.9c0,0.2-0.1,0.5-0.2,0.8c-0.9,0.7-1.8,1.6-2.2,2.6c-0.4,0.4-0.6,1.2-0.4,1.8c0.2,0.4,0.8,1.2,0.8,1.2
		c0.2,0.4,0.6,1.2,0.6,1.2c0.4,0.2,1,0.6,1.4,0.6c0.4,0,0.8-0.2,0.8-0.2c1.2,0,2.4-1.2,3-2c0.3-0.4,0.5-0.7,0.8-0.9
		c1.8-0.4,3.5-0.5,5.3-0.5c0.6,0,2-0.2,2-0.2c0.6,0,1.2,0.2,1.8,0.2c0.1-0.1,0.2-0.1,0.3-0.1c0.3,0.2,0.6,0.4,0.9,0.5
		c0.2,0.2,0.6,0.4,0.6,0.4c0.4,0.4,1.2,0.8,1.2,0.8c1,0.6,2,0.8,2.8,0c0.4-0.4,0.6-1.2,0.4-1.8c0-0.4-0.8-1.2-0.8-1.2l-0.1-0.1
		c-0.1-0.2-0.1-0.3-0.1-0.3c0-1.4-1.8-4.2-2-4.8c-0.2-0.4-0.4-1-0.4-1c0-2.4,0.6-4.4,1.2-6.7c0.1-0.4,0.1-0.9,0.1-1.2h0.1
		c0.4-0.8,0.6-1.8,0.2-2.4c-0.3-0.3-0.6-0.4-0.9-0.5c-0.3-0.2-0.7-0.2-1.1-0.1c-0.6,0-1.4,0.6-1.4,0.6c-3-0.2-5.4,2.2-8.3,2.2
		c-1.4,0-2.6-0.6-4-0.6c-0.4-0.2-0.8,0-1.2,0c-0.2,0.2-0.6,0.4-0.8,0.4c-0.1,0.1-0.3,0.2-0.4,0.4l-0.4-0.2c0,0,0.1,0.1,0.3,0.2
		c0,0,0,0,0,0c-0.4-0.2-0.9-0.4-1.3-0.2c-1.4,0.6-1.8,2-1,3.2c0.7,1,1.6,1.8,2.5,2.6c0.1,0.3,0.2,0.7,0.3,1c0,0.2,0.2,0.6,0,0.6
		C26.7,15.5,26.7,16.5,26.3,17.9z"/>
</g>
</svg>
