<?xml version="1.0" encoding="utf-8"?>
<!-- Generator: Adobe Illustrator 24.3.0, SVG Export Plug-In . SVG Version: 6.00 Build 0)  -->
<svg version="1.1" id="Layer_1" xmlns="http://www.w3.org/2000/svg" xmlns:xlink="http://www.w3.org/1999/xlink" x="0px" y="0px"
	 viewBox="0 0 90.9 88.9" style="enable-background:new 0 0 90.9 88.9;" xml:space="preserve">
<style type="text/css">
	.st0{stroke:#000000;}
</style>
<g>
	<path class="st0" d="M82.5,30.3c0.3-1.6-0.9-3.3-1.7-4.4c-1.3-1.9-2.6-3.7-4-5.5c0-0.2-0.1-0.4-0.1-0.6c-0.7-1.1-2.4-2.8-3-3.5
		c-2.4-2.6-5.2-5-8.2-6.5c-0.7-0.4-3.5-2.2-5.2-2.6c-0.1,0-0.2-0.1-0.3-0.1l0.5,0.1c-0.2-0.1-0.4-0.1-0.6-0.1
		c-0.4-0.2-0.8-0.3-1.2-0.3c-0.3,0-0.6,0-0.9-0.1L58.6,7c-0.4,0-0.9-0.1-1.3-0.1C56,6.2,55,5.7,53.5,5.3l1.6,0.2
		c-0.8-0.2-1.5-0.3-2.2-0.4c-0.4-0.1-0.8-0.2-1.3-0.3c-0.7-0.2-2.4-0.2-2.4-0.2l1.4,0.2c-2.4-0.2-4.7,0-7.5,0.7
		c-0.7,0.2-2,0.4-2.7,0.9c-1.1,0.4-2.2,0.8-3.4,1.3c-5.9,2.2-11.5,3-16.3,7.2c-2.2,2-4.6,3.9-6.5,6.1c-0.4,0.7-1.1,1.3-1.7,2.2
		c-0.4,0.4-1.1,1.7-1.3,1.7c-2,2.6-3.3,5-4.3,8.2c-2.2,5.4-4.3,11.5-2.6,17.4c0.9,3,2.6,6.1,4.1,8.9c0.4,0.9,1.1,2,1.5,2.8
		c0.4,0.7,0.7,1.5,1.1,2.2l0.2,0.4c0.4,1.5,1.7,2.8,2.8,3.9c0.9,0.9,2.4,2.2,2.4,2.2c0.2,0.2,0.4,0.4,0.4,0.4
		c0.4,0.4,0.9,1.1,1.3,1.5c0.2,0,0.4,0.4,0.7,0.4c2,2.2,3.9,3.9,6.1,5.9c1.7,1.5,3.3,3,5.4,3.9c4.1,1.3,8.5,1.1,12.8,1.1
		c6.1,0.2,11.5-0.2,17.4-2c3.5-1.1,6.5-3.5,9.3-5.4c6.5-4.8,11.7-9.3,14.7-17.1C88.2,50.4,88.3,38.6,82.5,30.3z M15.7,26.6
		c-0.2,0.9-0.7,1.5-0.9,2.4c0,0.2,0,0.9-0.2,0.9c-0.9,2.9-1.7,5.2-2.4,7.5c-0.2,0.3-0.3,0.5-0.4,0.5c-0.3-0.3-0.7-0.6-1.1-0.8
		c0.5-1.7,1-3.2,1.8-5.1c0.4-0.9,0.9-1.7,1.3-2.6c0.4-0.7,1.3-2.2,1.3-2.2C15.2,27,15.5,26.8,15.7,26.6
		C15.7,26.6,15.7,26.6,15.7,26.6z M19.3,67.6l-0.7-0.7c0.4-0.2,0.8-0.4,0.8-0.3h0.2c0,0.2,0.2,0.7,0.2,0.7
		C19.6,67.3,19.4,67.4,19.3,67.6z M21.1,23.4c-0.1-0.6-0.3-1.1-0.7-1.5c0.9-0.8,1.8-1.5,2.8-2.2c-0.4,0.5-0.8,1-1,1.5
		C21.7,22.1,21.1,23.4,21.1,23.4z M24.1,48.7c-0.1,0.1-0.3,0.3-0.5,0.4c-0.2,0-0.4,0-0.4,0l0.1,0.1c-0.2,0-0.4,0.1-0.6,0.1
		c0.2-1,0.3-1.9,0.5-2.9c0.1,0.8,0.4,1.6,0.9,2.2C24.2,48.7,24.2,48.7,24.1,48.7z M40.7,25.2c0.1-0.4,0.2-0.7,0.4-1
		c0.2-0.6,0.9-2.3,1.1-2.6c1-1.4,1.2-1.7,2.6-2.6c2.7-1.8,6.6-1.1,8.8,1.1c0,0,0,0,0,0c0.5,0.3,1,0.7,1.4,1.1
		c0.6,0.2,1.1,0.4,1.5,0.8c0.7,0.2,1.3,0.9,1.3,1.1c0.4,1.5,0.9,5,0.9,5c0,1.1-0.2,2.2-0.9,3c-0.2,0.4-0.4,0.9-0.7,1.3l-0.2,0.2
		c-0.6,0-1.2,0.1-1.7,0.2c-0.4,0.2-0.9,0.4-1.1,0.9c0,0,0,0,0,0c-0.5,0.1-1,0.2-1.4,0.4c-0.5,0.3-1.1,0.5-1.6,0.7
		c-1.1,0.3-2.2,0.3-3.2,0.1c-0.6,0-1.2-0.1-1.8-0.3c-0.6-0.2-1.3-0.5-1.8-0.9c-0.3,0-0.6,0-0.6,0c-0.3-0.1-0.5-0.3-0.8-0.4
		c-0.4-0.4-0.8-0.8-1.2-1.4v-0.9c-0.3-0.6-0.7-1.4-0.8-2.1C40.3,27.8,40.3,26.5,40.7,25.2z M39.7,17.1c0.2,0.1,0.4,0.2,0.6,0.3
		c-0.4,0.3-0.8,0.6-1.1,0.9C39.5,17.7,39.7,17.1,39.7,17.1z M32.2,15.3C32.2,15.3,32.2,15.3,32.2,15.3c-0.5,0.3-0.7,1.2-0.7,0.9
		c-0.1-0.1-0.4-0.3-0.6-0.5C31.3,15.6,31.8,15.4,32.2,15.3z M29.1,44.8c0.4-0.2,1.3-1.1,1.3-0.9c0.9,0.2,2,0,2.6-0.4
		c0.4-0.4,1.1-1.1,1.1-1.1c0.1,0,0.1,0,0.2,0c0,0,0.1,0,0.1,0c0.5,0.4,0.9,0.8,1.4,1.1c-1.4,0.2-2.8,0.5-4.2,0.9
		c-1,0.2-1.9,0.7-2.7,1.2C28.9,45.2,29,44.8,29.1,44.8z M25.2,72.5c0.3,0.1,0.4,0.1,0.4,0.1c0.2,0.2,0.3,0.3,0.5,0.5
		C25.8,72.9,25.5,72.7,25.2,72.5z M69.6,53.6c-0.7,0.8-1.6,2.3-2.3,2.9c-0.3,0.3-0.6,0.5-0.9,0.7c-0.8-0.5-2.6,0.3-3.2,0.8
		c-1.1,0.7-2.4,2.2-3.5,3c-0.8,0.7-1.6,1.3-2.4,1.8c-0.7,0.2-1.4,0.5-1.9,1L55,64.3c-1.6,0.8-3.3,1.5-5,1.9c-1,0.1-2,0.1-3,0.1
		c-1.1-0.3-2.3-0.3-3.5,0c-2.4-0.1-4.7-0.4-6.6-1.3c-1.7-1.1-4.1-3.9-5-4.8c-0.4-0.4-1.1-1.1-1.3-1.1c-0.9-1.1-1.7-2.2-2.6-3.3
		c-0.4-0.4-1.1-1.3-1.1-1.3c-0.3-0.7-0.4-1.5-0.5-2.2c2.1-0.7,3.4-3,5.5-3.6c1.1-0.4,3.3-0.4,4.3-0.7c3-0.7,6.3-1.3,9.3-1.3
		c8.2-0.2,15.6,2,23.2,5.4c0.4,0.2,0.7,0.5,1,0.9C69.8,53.3,69.7,53.5,69.6,53.6z"/>
	<path class="st0" d="M52.7,74.6H53c0,0,0,0.1,0,0.2L52.7,74.6z"/>
	<path class="st0" d="M53,39.4c0-0.2,0-0.4,0-0.4l0.2,0.2L53,39.4z"/>
	<path class="st0" d="M57.7,6.8l-0.6-0.1C57.1,6.7,57.4,6.7,57.7,6.8z"/>
</g>
</svg>
