<?xml version="1.0" encoding="utf-8"?>
<!-- Generator: Adobe Illustrator 24.3.0, SVG Export Plug-In . SVG Version: 6.00 Build 0)  -->
<svg version="1.1" id="Layer_1" xmlns="http://www.w3.org/2000/svg" xmlns:xlink="http://www.w3.org/1999/xlink" x="0px" y="0px"
	 viewBox="0 0 100 100.3" style="enable-background:new 0 0 100 100.3;" xml:space="preserve">
<g>
	<path d="M90.7,15.8c-2.8-4.4-7-7.7-12.7-10.1l0.1-0.3c-0.9-0.3-1.8-0.5-2.8-0.8c-0.7-0.2-1.3-0.5-2-0.7c-3.2-1-9.8-1.7-10.1-1.8
		l0,0.1C48.5,0.6,32,2.4,19.6,11.6c-6.9,5.1-10.9,15-13.9,24c-6.8,20.3-3.9,35,9.3,47.5c7,6.6,22.4,15.2,33,15.2
		c0.6,0,1.1,0,1.6-0.1c0.5,0,1.1-0.1,1.9-0.1c3.8-0.1,10.2-0.4,12.3-3.3c0.7-1.1,0.8-2.4,0.3-3.9c-0.7-1.9-3.6-1.2-6-0.6
		c-0.6,0.1-1.2,0.3-1.5,0.3c-7.9,0.8-13.7,0.2-19.2-2.1C25.4,83.6,10.8,72.9,8.5,58.9C7.4,52.4,10,45,12.2,38.5
		c0.4-1.1,0.8-2.2,1.1-3.2c2.2-6.5,4.9-13.7,10.2-17.7C33.4,10.1,45,9.5,58,9.5c8,0,17.2,0.5,23.9,6.6c11.7,10.6,10,30,6.4,44.5
		c-0.8,3.4-2.4,9.9-6.1,12.3c-3,2-5.4,2.6-7.2,1.6C71.5,72.4,70.9,63.9,71,57c0.4-2.4,0.3-5.7,0.3-7c0-0.3,0-0.4,0-0.5
		c0.3-4.7,0.5-9.3,0.5-14.3l0.7-5.6c0.1-0.5,0.1-1.2,0.2-1.8c0.1-1.1,0.3-2.8,0.3-3c1.6-2.4,0.7-5.2-1.2-6.4
		c-0.4-0.3-0.9-0.5-1.3-0.6c-0.7-0.7-1.6-1.2-3.1-0.6c-1.2,0.5-2,2.6-2.1,3l0,0.2c0,0.2,0,0.7,0,1l-0.1,0.8
		c-0.3,1.9-0.7,3.6-0.8,5.6c-0.1,1.7-0.1,2.6-0.2,3.1c-1.2-0.6-2.6-1.4-2.8-1.6c-0.4-0.3-0.8-0.6-1.2-0.9c-1.7-1.2-3.2-2.4-5.4-2.8
		l-2.2-0.5c-4.9-1-5.7-1.2-5.9-1.2c-0.2,0-0.5,0-0.7,0c-0.7-0.1-1.7,0.1-2.7,0.2c-0.3,0-0.5,0.1-0.6,0.1c-0.9,0-2.2,0.5-3.2,0.9
		l-0.2,0.1c-0.3,0.1-0.7,0.3-1.1,0.4c-1.3,0.5-2.8,1-3.9,1.8c-0.5,0.3-1,0.9-1.4,1.4c-0.2,0.2-0.5,0.6-0.6,0.7
		c-0.7,0.1-1.2,0.9-1.5,1.4c-0.1,0.1-0.1,0.2-0.1,0.2c-2.3,2.5-4.1,5.1-5.7,7.5c-0.6,0.9-1.1,2.4-1.6,3.8c-0.1,0.3-0.1,0.5-0.2,0.5
		c-1,2.1-1.8,5.9-2.2,11.4c0,0.2,0,0.4,0,0.4c-0.2,0.8-0.2,2.4-0.2,2.7c0,8.8,4.6,16.7,11.8,20.2c2.3,1.1,5.6,2.5,8.9,2.5
		c0.3,0,0.6,0,0.9,0c2.5-0.2,7.4-1.2,8.3-1.3c0.7-0.1,1.7-0.5,2.5-0.7c0.5-0.2,0.9-0.3,1-0.3c1.2,0,2.6-0.9,4-1.9
		c0.2-0.1,0.3-0.2,0.3-0.2c2.9-1.4,5.1-3.1,6.8-5.2c1,4.3,2.7,7.9,5.5,9.9c3,2.1,7,2.2,11.8,0.3c7.7-3.1,11-10.9,12.5-16.9
		C98.2,49.6,100.8,31.4,90.7,15.8z M59.4,65.5c-2,1.6-6.5,4.4-6.9,4.6l-0.6,0.2c-1.7,0.5-5.5,1.7-6,1.7c-0.1,0-0.2,0-0.3,0
		c-0.5-1-2.1-0.8-3.3-0.7c-0.2,0-0.4,0-0.5,0c-1.2-0.6-2.5-1-3.8-1.4c-2.8-0.9-5.4-1.8-6.9-4.3c-1.4-2.4-3.2-7.7-3.3-8.1l0.4-2.9
		c0.2-1.6,0.4-3.1,0.5-3.3l0-0.2c0.4-1.7,1.3-5.7,1.4-6.1l0.4-0.7c0.8-1.6,1.7-3.1,2.7-4.6l0.2-0.3c0.8-1,2.5-3.4,2.8-3.6l0.2-0.1
		c0.1-0.1,0.3-0.1,0.5-0.3c2.3-1.6,4.3-3,4.6-3.1c0.5-0.1,1.1-0.3,1.6-0.5c3.1-0.8,6,0.1,8.4,1.2l6.5,2.9c1.9,1.5,5,4.5,5.6,5.3
		c-0.1,1.3-0.2,2.7-0.2,4.2c-0.1,3.8-0.3,7.7-1.4,11c-0.2,0.5-0.3,1-0.5,1.6c-0.5,1.6-1.1,3.2-1.4,4.8C59.5,65,59.3,65.5,59.4,65.5z
		"/>
</g>
</svg>
