<?xml version="1.0" encoding="utf-8"?>
<!-- Generator: Adobe Illustrator 24.3.0, SVG Export Plug-In . SVG Version: 6.00 Build 0)  -->
<svg version="1.1" id="Layer_1" xmlns="http://www.w3.org/2000/svg" xmlns:xlink="http://www.w3.org/1999/xlink" x="0px" y="0px"
	 viewBox="0 0 83.4 72.9" style="enable-background:new 0 0 83.4 72.9;" xml:space="preserve">
<g>
	<g>
		<path d="M64.4,52.2c-0.1-0.6-0.1-1.6-2.7-1.9c-0.5-0.1-1.2-0.1-2-0.1c-2.4,0-4.9-0.1-7.3-0.1c-1.5,0-3.1,0-4.7,0
			c-0.9,0-1.9,0-2.8,0c-3,0.2-3,1.1-3,1.8c0,0.3-0.1,0.6-0.2,0.9c-0.1,0.5-0.3,1.1-0.1,1.7c0.1,0.2,0.2,0.3,0.3,0.5
			c0.1,0.2,0.2,0.3,0.3,0.5c0,0.1,0,0.2,0.1,0.4c0,0.3,0.1,0.5,0.2,0.8c0.3,0.5,0.7,1.3,2.8,1.5c3.2,0.3,7,0.3,10.5,0.4l0.6,0
			c2.4,0,5.7-0.1,7.1-0.9c0.8-0.5,0.8-0.9,0.8-1.4l0-0.2c0-0.4,0.1-0.7,0.1-1.1c0.1-0.7,0.3-1.5,0-2.2
			C64.4,52.5,64.4,52.4,64.4,52.2z"/>
		<path d="M37.5,35.3l-0.2-0.2c-1.5-1.3-3.1-2.4-4.6-3.6c-0.9-0.6-1.7-1.2-2.5-1.9c-0.7-0.5-1.3-1.1-1.9-1.6c-0.5-0.4-1-0.9-1.5-1.3
			c-0.3-0.2-0.5-0.5-0.8-0.7c-1.1-1-2.6-2.4-4.4-1c-0.5,0.4-2.3,2-2.3,3.7c0,0.6,0.2,1.2,0.6,1.7c1,1.3,2.7,2.3,4.2,3.3
			c0.4,0.2,0.8,0.5,1.1,0.7c1.6,1.1,3,2.4,4.7,3.9c0.4,0.4,0.9,0.8,1.4,1.1c0.4,0.3,0.7,0.5,1,0.8l0.2,0.1c0.5,0.4,0.7,0.6,0.7,0.8
			c0,0.1-0.1,0.3-0.3,0.7c-0.3,0.4-0.8,0.8-1.3,1.2c-0.4,0.3-0.9,0.6-1.2,1c-0.4,0.4-0.8,0.8-1.1,1.3c-0.4,0.5-0.8,0.9-1.2,1.4
			c-0.6,0.6-1.3,1.1-2,1.7c-0.7,0.5-1.3,1-2,1.7c-0.7,0.6-1.3,1.2-2,1.8c-1.2,0.9-1.6,1.8-1.4,2.8c0.3,1.3,2.3,3.2,3.1,3.7
			c1.6,1.1,3-0.2,4.1-1.1c0.3-0.2,0.6-0.5,0.8-0.6l0.2-0.1c1.6-1,2.8-2.2,4.1-3.4l0.3-0.3c0.5-0.5,1-0.9,1.4-1.4
			c2.2-2,4.2-3.9,5.7-6.6c0.1-0.2,0.2-0.4,0.3-0.5c0.4-0.7,0.9-1.5,1-2.4c0-0.1,0-0.3,0-0.4l0,0C41.7,38.9,39.2,36.8,37.5,35.3z"/>
		<path d="M79.7,17.4C79,10,73.9,5,65,5.2c-1.2,0-1.9,0.4-2.2-0.2c-3,0.3-5.9,0.4-8.9,0.2c-0.7,0-1.3-0.2-1.9-0.4
			c-0.6,0-1.2,0-1.8,0c-3.7,0.4-7.5,0.1-11.1-0.3C34.1,3.9,29,4.9,24,4.9c-4.4,0-9.2-0.1-13.4,1.7C5,8.9,4.4,15.6,4.2,20.7
			c-0.1,2.5,0.4,5-0.1,7.4C4.1,28.5,4,28.9,4,29.3C4,30.2,3.8,32,3.8,32c-0.7,4.3-0.2,17.8,0.4,22l0.2,1.4c0.3,1.8,0.6,3.5,1.2,5.3
			C5.7,61,5.9,61.2,6,61.5c0.1,0.2,0.2,0.4,0.3,0.7c0.1,0.3,0.3,0.5,0.5,0.6c0.3,1,0.9,1.8,1.7,2.5c0.3,0.3,0.9,0.6,1.2,0.7
			c0.7,0.5,1.9,0.9,2,0.9c0.2,0.1,0.3,0.2,0.4,0.2c0.4,0.2,0.7,0.4,1.2,0.4c0.4,0.1,1,0.3,1.2,0.3c1.8,0.5,3.7,0.7,5.9,0.7
			c1.9,0,3.8-0.2,5.6-0.3c1-0.1,2-0.2,3-0.2c0.5,0,1,0,1.5,0.1c1.9,0.1,3.7,0,5.4-0.2c1.2-0.1,15-0.2,16.2-0.2
			c0.6,0,1.1,0.1,1.6,0.1c1.1,0.1,2.1,0.2,3.2,0.2c0.4,0,0.8,0,1.2,0c0.5,0,1,0,1.5,0c2.5,0,5.2,0.1,7.8-1c0.5-0.2,1.1-0.5,1.5-0.8
			c0.2-0.1,0.4-0.2,0.6-0.3c0.2-0.1,0.4-0.2,0.6-0.4c0.1,0,0.1,0,0.2,0c1.1,0,2.1-0.7,3.3-2c0.2-0.3,0.5-0.7,0.8-1.1
			c0.7-0.9,1.7-2.1,2.2-3.2c1.3-3.2,1.9-15.8,2-19.7l0-0.1l0-0.4l0.1-0.4c0.1-1,0.3-2,0.3-3c0-0.6-0.1-1.6-0.1-2.1
			c0.3-0.4,0.4-0.9,0.3-1.4l0-0.6C79.1,31,79,30.3,79,29.7l0,0c0.1-2.1,0.2-4.4,0.6-6.7C79.9,21,79.9,19.2,79.7,17.4z M74.8,27.4
			c0,0.3-0.1,0.5-0.1,0.7v4.3c0,0.4,0,0.8-0.1,1.2c0,0.5-0.1,1-0.1,1.6c0,0.2-0.1,0.7-0.1,1c-0.4,2.7-1,16.9-2.4,19.6
			c-0.5,1.1-1.1,2.3-1.6,3.3l-0.1,0.1c-0.1,0.5-0.3,0.8-0.5,1l-0.1,0.2v0.1c0,0,0,0,0,0c-1.3,0.9-2.7,1.6-4,2.3
			c-1.3,0.5-2.8,0.6-4.1,0.6c-0.6,0-1.2,0-1.8,0c-0.6,0-1.1,0-1.6,0c-2,0-4.2,0.1-6.2,0.3c-2.1,0.1-17,0.3-19,0.3
			c-0.8-0.1-1.7-0.3-2.6-0.3c-0.4,0-0.8,0-1.1,0.1c-2.6,0.4-5.4,0.6-8.1,0.5c-1.9,0-3.7-0.1-5.4-0.3c-0.4-0.4-0.8-0.7-1.3-1
			c-0.9-1.1-1.7-2.7-2-4.4c-0.3-0.9-0.4-1.5-0.6-2.2l0-0.1c0-0.1-0.1-0.2-0.1-0.4c-0.1-0.2-0.2-0.5-0.3-0.7c0-0.6,0-1.3-0.1-2
			c0-0.5-0.1-0.9-0.2-1.4L11,51.4v-0.3c0-1.4-0.1-14.1-0.2-15.5c-0.1-1.8-0.2-3.7-0.1-5.5c0.1-2,0.4-3.9,0.6-5.9l0.1-0.8
			c0.1-0.6,0.2-1.3,0.3-2c0.1-0.5,0.1-1,0.2-1.5c1.3,0.1,2.6,0.3,4.3,0.5h2c0.4,0,0.9-0.1,1.1-0.2c1.3,0.2,2.9,0,4.2-0.2
			c0.9-0.1,1.8-0.2,2.7-0.2c0.2,0,0.4,0,0.7,0c1.2,0,2.2,0,3.2-0.1c1,0,2.1-0.1,3.6-0.1c4.8-0.2,22.4,0,28.1,0.4
			c1.4,0,2.3-0.1,3.5-0.2c0.4,0,0.8-0.1,1.1-0.1c0.6,0,1.2,0,1.7,0.1c1.2,0.1,2.4,0.1,3.3-0.1c1-0.1,2.2,0.1,3.3-0.3
			c0,0.4,0,0.7,0,1.1c0,0.4-0.1,0.8-0.1,1.1c-0.2,0.8-0.2,1.5-0.2,2.4c0.1,0.5,0.2,1.1,0.2,1.6c0.1,0.6,0.2,1.2,0.2,1.3
			C74.9,27,74.8,27.2,74.8,27.4z"/>
	</g>
</g>
</svg>
